<?xml version="1.0" encoding="UTF-8" standalone="no"?>
<svg
   id="svg3430"
   width="800"
   height="800"
   viewBox="0 0 799.99974 800.00104"
   version="1.1"
   sodipodi:docname="node-red-contrib-multiflexi.svg"
   inkscape:version="1.4 (e7c3feb100, 2024-10-09)"
   xml:space="preserve"
   xmlns:inkscape="http://www.inkscape.org/namespaces/inkscape"
   xmlns:sodipodi="http://sodipodi.sourceforge.net/DTD/sodipodi-0.dtd"
   xmlns="http://www.w3.org/2000/svg"
   xmlns:svg="http://www.w3.org/2000/svg"
   xmlns:rdf="http://www.w3.org/1999/02/22-rdf-syntax-ns#"
   xmlns:cc="http://creativecommons.org/ns#"
   xmlns:dc="http://purl.org/dc/elements/1.1/"><metadata
     id="metadata41"><rdf:RDF><cc:Work
         rdf:about=""><dc:format>image/svg+xml</dc:format><dc:type
           rdf:resource="http://purl.org/dc/dcmitype/StillImage" /><dc:title /></cc:Work></rdf:RDF></metadata><sodipodi:namedview
     pagecolor="#ffffff"
     bordercolor="#666666"
     borderopacity="1"
     objecttolerance="10"
     gridtolerance="10"
     guidetolerance="10"
     inkscape:pageopacity="0"
     inkscape:pageshadow="2"
     inkscape:window-width="1920"
     inkscape:window-height="1120"
     id="namedview39"
     showgrid="false"
     inkscape:zoom="0.15380705"
     inkscape:cx="-591.65038"
     inkscape:cy="191.79875"
     inkscape:window-x="0"
     inkscape:window-y="0"
     inkscape:window-maximized="1"
     inkscape:current-layer="svg3430"
     inkscape:showpageshadow="2"
     inkscape:pagecheckerboard="0"
     inkscape:deskcolor="#d1d1d1" /><defs
     id="defs3434"><clipPath
       id="clipPath3444"><path
         id="path3446"
         d="M 11.52,162 C 11.52,81.677 135.307,16.56 288,16.56 440.693,16.56 564.48,81.678 564.48,162 564.48,242.322 440.693,307.44 288,307.44 135.307,307.44 11.52,242.32 11.52,162"
         inkscape:connector-curvature="0" /></clipPath><radialGradient
       id="radialGradient3452"
       cx="0"
       cy="0"
       r="1"
       fx="0"
       fy="0"
       gradientTransform="matrix(363.06,0,0,-363.06,177.52,256.31)"
       gradientUnits="userSpaceOnUse"
       spreadMethod="pad"><stop
         id="stop3454"
         offset="0"
         stop-color="#aeb2d5" /><stop
         id="stop3456"
         offset="0.3"
         stop-color="#aeb2d5" /><stop
         id="stop3458"
         offset="0.75"
         stop-color="#484c89" /><stop
         id="stop3460"
         offset="1"
         stop-color="#484c89" /></radialGradient><clipPath
       id="clipPath3468"><path
         id="path3470"
         d="M 0,324 H 576 V 0 H 0 Z"
         inkscape:connector-curvature="0" /></clipPath><clipPath
       id="clipPath3480"><path
         id="path3482"
         d="M 0,324 H 576 V 0 H 0 Z"
         inkscape:connector-curvature="0" /></clipPath><filter
       style="color-interpolation-filters:sRGB"
       inkscape:label="Drop Shadow"
       id="filter4622"
       x="-0.1215186"
       y="-0.21051334"
       width="1.29367"
       height="1.5087406"><feFlood
         flood-opacity="0.498039"
         flood-color="rgb(0,0,0)"
         result="flood"
         id="feFlood4612" /><feComposite
         in="flood"
         in2="SourceGraphic"
         operator="in"
         result="composite1"
         id="feComposite4614" /><feGaussianBlur
         in="composite1"
         stdDeviation="6"
         result="blur"
         id="feGaussianBlur4616" /><feOffset
         dx="6"
         dy="6"
         result="offset"
         id="feOffset4618" /><feComposite
         in="SourceGraphic"
         in2="offset"
         operator="over"
         result="fbSourceGraphic"
         id="feComposite4620" /><feColorMatrix
         result="fbSourceGraphicAlpha"
         in="fbSourceGraphic"
         values="0 0 0 -1 0 0 0 0 -1 0 0 0 0 -1 0 0 0 0 1 0"
         id="feColorMatrix4624" /><feFlood
         id="feFlood4626"
         flood-opacity="0.498039"
         flood-color="rgb(0,0,0)"
         result="flood"
         in="fbSourceGraphic" /><feComposite
         in2="fbSourceGraphic"
         id="feComposite4628"
         in="flood"
         operator="in"
         result="composite1" /><feGaussianBlur
         id="feGaussianBlur4630"
         in="composite1"
         stdDeviation="6"
         result="blur" /><feOffset
         id="feOffset4632"
         dx="6"
         dy="6"
         result="offset" /><feComposite
         in2="offset"
         id="feComposite4634"
         in="fbSourceGraphic"
         operator="over"
         result="fbSourceGraphic" /><feColorMatrix
         result="fbSourceGraphicAlpha"
         in="fbSourceGraphic"
         values="0 0 0 -1 0 0 0 0 -1 0 0 0 0 -1 0 0 0 0 1 0"
         id="feColorMatrix4636" /><feFlood
         id="feFlood4638"
         flood-opacity="0.498039"
         flood-color="rgb(0,0,0)"
         result="flood"
         in="fbSourceGraphic" /><feComposite
         in2="fbSourceGraphic"
         id="feComposite4640"
         in="flood"
         operator="in"
         result="composite1" /><feGaussianBlur
         id="feGaussianBlur4642"
         in="composite1"
         stdDeviation="6"
         result="blur" /><feOffset
         id="feOffset4644"
         dx="6"
         dy="6"
         result="offset" /><feComposite
         in2="offset"
         id="feComposite4646"
         in="fbSourceGraphic"
         operator="over"
         result="composite2" /></filter><filter
       style="color-interpolation-filters:sRGB"
       inkscape:label="Color Shift"
       id="filter3861"><feColorMatrix
         type="hueRotate"
         values="112"
         result="color1"
         id="feColorMatrix3857" /><feColorMatrix
         type="saturate"
         values="0.6"
         result="fbSourceGraphic"
         id="feColorMatrix3859" /><feColorMatrix
         result="fbSourceGraphicAlpha"
         in="fbSourceGraphic"
         values="0 0 0 -1 0 0 0 0 -1 0 0 0 0 -1 0 0 0 0 1 0"
         id="feColorMatrix3863" /><feColorMatrix
         id="feColorMatrix3865"
         type="hueRotate"
         values="112"
         result="color1"
         in="fbSourceGraphic" /><feColorMatrix
         id="feColorMatrix3867"
         type="saturate"
         values="0.6"
         result="color2" /></filter><filter
       style="color-interpolation-filters:sRGB"
       inkscape:label="Color Shift"
       id="filter3873"><feColorMatrix
         type="hueRotate"
         values="112"
         result="color1"
         id="feColorMatrix3869" /><feColorMatrix
         type="saturate"
         values="0.6"
         result="fbSourceGraphic"
         id="feColorMatrix3871" /><feColorMatrix
         result="fbSourceGraphicAlpha"
         in="fbSourceGraphic"
         values="0 0 0 -1 0 0 0 0 -1 0 0 0 0 -1 0 0 0 0 1 0"
         id="feColorMatrix3911" /><feColorMatrix
         id="feColorMatrix3913"
         type="hueRotate"
         values="323"
         result="color1"
         in="fbSourceGraphic" /><feColorMatrix
         id="feColorMatrix3915"
         type="saturate"
         values="0.61"
         result="color2" /></filter><filter
       style="color-interpolation-filters:sRGB"
       inkscape:label="Color Shift"
       id="filter4017"
       x="-0.1215186"
       y="-0.21051334"
       width="1.2936701"
       height="1.5087405"><feColorMatrix
         type="hueRotate"
         values="327"
         result="color1"
         id="feColorMatrix4013" /><feColorMatrix
         type="saturate"
         values="1"
         result="color2"
         id="feColorMatrix4015" /></filter><filter
       style="color-interpolation-filters:sRGB"
       inkscape:label="Color Shift"
       id="filter4135"
       x="0"
       y="0"
       width="1"
       height="1"><feColorMatrix
         type="hueRotate"
         values="229"
         result="color1"
         id="feColorMatrix4131" /><feColorMatrix
         type="saturate"
         values="0.79"
         result="color2"
         id="feColorMatrix4133" /></filter><linearGradient
       x1="0"
       y1="0"
       x2="1"
       y2="0"
       gradientUnits="userSpaceOnUse"
       gradientTransform="matrix(-4.02e-6,-91.8907,-91.8907,4.02e-6,85.8809,161.434)"
       spreadMethod="pad"
       id="linearGradient3027"><stop
         style="stop-opacity:1;stop-color:#97d9f6"
         offset="0"
         id="stop3029" /><stop
         style="stop-opacity:1;stop-color:#0f80cc"
         offset="0.920245"
         id="stop3031" /><stop
         style="stop-opacity:1;stop-color:#0f80cc"
         offset="1"
         id="stop3033" /></linearGradient><filter
       style="color-interpolation-filters:sRGB;"
       inkscape:label="Drop Shadow"
       id="filter1553"><feFlood
         flood-opacity="0.498039"
         flood-color="rgb(0,0,0)"
         result="flood"
         id="feFlood1543" /><feComposite
         in="flood"
         in2="SourceGraphic"
         operator="in"
         result="composite1"
         id="feComposite1545" /><feGaussianBlur
         in="composite1"
         stdDeviation="3"
         result="blur"
         id="feGaussianBlur1547" /><feOffset
         dx="6"
         dy="6"
         result="offset"
         id="feOffset1549" /><feComposite
         in="SourceGraphic"
         in2="offset"
         operator="over"
         result="composite2"
         id="feComposite1551" /></filter><filter
       inkscape:label="Black Hole"
       inkscape:menu="Morphology"
       inkscape:menu-tooltip="Creates a black light inside and outside"
       height="1.0441137"
       width="1.0594339"
       y="-0.022056837"
       x="-0.029716946"
       style="color-interpolation-filters:sRGB"
       id="filter776"><feGaussianBlur
         stdDeviation="5"
         in="SourceAlpha"
         result="result1"
         id="feGaussianBlur764" /><feComposite
         operator="arithmetic"
         k2="3.2"
         k1="-1"
         k4="-2"
         result="result3"
         in2="result1"
         id="feComposite766"
         k3="0" /><feColorMatrix
         values="1 0 0 0 0 0 1 0 0 0 0 0 1 0 0 0 0 0 10 0 "
         result="result2"
         id="feColorMatrix768" /><feComposite
         result="fbSourceGraphic"
         in="SourceGraphic"
         operator="out"
         in2="result2"
         id="feComposite770" /><feBlend
         mode="multiply"
         in="result1"
         in2="fbSourceGraphic"
         result="result91"
         id="feBlend772" /><feBlend
         mode="screen"
         in="fbSourceGraphic"
         in2="result91"
         id="feBlend774" /></filter></defs><g
     transform="matrix(1.7546584,0,0,1.7546584,-21.111463,-1025.4138)"
     id="g2"><rect
       style="color:#000000;isolation:auto;mix-blend-mode:normal;solid-color:#000000;color-rendering:auto;image-rendering:auto;shape-rendering:auto"
       ry="56"
       height="448"
       width="448"
       y="588.35999"
       x="16"
       fill="#8f0000"
       id="rect1" /><g
       transform="matrix(8.545,0,0,8.545,-786.19,-1949.8)"
       id="g1"><path
         style="color:#000000;text-indent:0;text-decoration-line:none;text-decoration-style:solid;text-decoration-color:#000000;text-transform:none;white-space:normal;isolation:auto;mix-blend-mode:normal;solid-color:#000000;color-rendering:auto;image-rendering:auto;shape-rendering:auto"
         d="m 104.41,321.21 c 0.0138,-2.3846 -1.905,-4.2806 -4.2896,-4.2806 h -6.243 v 2.9257 h 6.243 c 0.80513,0 1.4808,0.58383 1.4808,1.389 v 4.2422 c 0,0.80513 -0.67566,1.5075 -1.4808,1.5075 h -6.243 v 2.8086 h 6.243 c 2.3846,0 4.2895,-1.9315 4.2895,-4.3162 l -5e-5,-1.9812 c 9.8659,0.14125 12.737,2.7065 15.877,5.4519 3.0241,2.6446 6.4153,5.4869 15.252,5.557 l 4.6e-4,0.97238 c 0.001,2.3846 1.9543,4.3803 4.3389,4.3803 h 6.4273 v -3.0427 h -6.4273 c -0.80514,0 -1.4135,-0.53255 -1.4135,-1.3377 v -4.2422 c 0,-0.80513 0.60835,-1.4418 1.4135,-1.4418 h 6.4273 v -2.8086 h -6.4273 c -2.3846,0 -4.3379,1.8658 -4.3389,4.2504 l -4.5e-4,1.005 c -8.351,-0.0276 -10.723,-2.3434 -13.76,-4.9992 -2.5914,-2.2662 -5.6368,-4.7578 -12.346,-5.6642 0.0583,-0.0501 0.11211,-0.0987 0.16838,-0.15027 1.2918,-1.1846 1.9884,-2.6158 2.6699,-3.8516 0.68148,-1.2357 1.3227,-2.267 2.373,-2.9879 0.85207,-0.58483 2.0639,-1.0208 3.926,-1.1017 l 1.8e-4,0.99192 c 4.3e-4,2.3846 1.9236,4.4325 4.3083,4.4325 h 17.242 c 2.3846,0 4.3127,-2.0479 4.3127,-4.4325 v -4.2422 c 0,-2.3846 -1.9281,-4.3153 -4.3127,-4.3153 h -17.242 c -2.3846,0 -4.3095,1.9306 -4.3083,4.3153 l 5.1e-4,0.98395 c -2.2474,0.0903 -3.9508,0.6357 -5.2079,1.4985 -1.5245,1.0464 -2.3662,2.4764 -3.0762,3.7637 -0.70992,1.2873 -1.3108,2.4408 -2.2188,3.2734 -0.79034,0.72475 -1.8834,1.2844 -3.658,1.493 z m 18.468,-12.356 h 17.242 c 0.80514,0 1.387,0.58455 1.387,1.3897 v 4.2422 c 0,0.80514 -0.5819,1.3898 -1.387,1.3898 h -17.242 c -0.80514,0 -1.4994,-0.58462 -1.4994,-1.3898 v -4.2422 c 0,-0.80513 0.69431,-1.3897 1.4994,-1.3897 z"
         fill="#ffffff"
         id="path1" /></g></g><g
     id="g249"
     transform="matrix(1.3246338,0,0,1.3246338,-598.58196,-231.73128)"
     style="fill:#ffd42a;fill-opacity:1;filter:url(#filter776)"><path
       id="path5740"
       style="color:#000000;text-indent:0;text-transform:none;fill:#ffd42a;fill-opacity:1;fill-rule:evenodd"
       inkscape:connector-curvature="0"
       d="m 713.47,204.89 v 74.226 c -91.83,18.86 -161.52,100.63 -161.52,197.79 0,96.668 69.012,178.12 160.15,197.51 L 645.092,607.408 686.15,566.35 c -26.951,-20.333 -44.214,-52.667 -44.214,-89.444 0,-48.051 29.471,-88.501 71.524,-104.52 v 115.53 L 854.98,346.396 713.47,204.886 Z" /><path
       id="path2985"
       style="color:#000000;text-indent:0;text-transform:none;fill:#ffd42a;fill-opacity:1;fill-rule:evenodd"
       inkscape:connector-curvature="0"
       d="m 795.61,279.41 67.008,66.993 -41.074,41.074 c 26.961,20.328 44.23,52.647 44.23,89.428 0,48.051 -29.47,88.512 -71.524,104.54 v -115.55 l -141.52,141.52 141.52,141.52 v -74.226 c 91.812,-18.87 161.51,-100.65 161.51,-197.79 0,-96.667 -69.01,-178.1 -160.15,-197.49 z" /></g></svg>
